<svg xmlns="http://www.w3.org/2000/svg" width="500" height="400" viewBox="-250 -200 500 400">
    
    <defs>
        <clipPath id="tv">
        <rect x="-180" y="-85" width="260" height="240" rx="30" />
        </clipPath>
    </defs>

    <rect x="-200" y="-95" width="400" height="260" stroke="#111" stroke-width="4" fill="#cd7f32" rx="30" />

    <g id="tv-background" clip-path="url(#tv)">
        <circle cx="-35" cy="50" r="190" fill="#fec505" />
        <circle cx="-35" cy="50" r="180" fill="#fef4a9" />
        <circle cx="-35" cy="50" r="170" fill="#fec505" />
        <circle cx="-35" cy="50" r="160" fill="#fef4a9" />
        <circle cx="-35" cy="50" r="150" fill="#fec505" />
        <circle cx="-35" cy="50" r="140" fill="#fef4a9" />
        <circle cx="-35" cy="50" r="130" fill="#fec505" />
        <circle cx="-35" cy="50" r="120" fill="#fef4a9" />
        <circle cx="-35" cy="50" r="110" fill="#fec505" />
        <circle cx="-35" cy="50" r="100" fill="#fef4a9" />
        <circle cx="-35" cy="50" r="90" fill="#fec505" />
        <circle cx="-35" cy="50" r="80" fill="#fef4a9" />
        <circle cx="-35" cy="50" r="70" fill="#fec505" />
        <circle cx="-35" cy="50" r="60" fill="#fef4a9" />
        <circle cx="-35" cy="50" r="50" fill="#fec505" />
        <circle cx="-35" cy="50" r="40" fill="#fef4a9" />
        <circle cx="-35" cy="50" r="30" fill="#fec505" />
    </g>

    <text x="-150" y="-40" class="tv__cursive">Everybody </text>
    <text x="-65" y="-6" class="tv__cursive"> Loves</text>
    <text x="-125" y="50" class="tv__maintext">HYPNOTOAD</text>
    <text x="-50" y="130" class="hypnotoad">h</text>

    <rect x="-180" y="-85" width="260" height="240" stroke="#111" stroke-width="4" fill="transparent" rx="30" />
    
    <circle cx="125" cy="30" r="20" fill="#fff" />
    <line x1="0" y1="-100" x2="-120" y2="-180" stroke="#fff" stroke-width="6" />
    <line x1="0" y1="-100" x2="120" y2="-180" stroke="#fff" stroke-width="6" />

    <style>
        @font-face {
            font-family: 'Satisfy';
            src: url(../fonts/Satisfy-Regular.ttf);
        }
        @font-face {
            font-family: 'HYPNOTOAD';
            src: url(../fonts/hypnotoad.ttf);
        }
        .hypnotoad {
            font: bold 3rem HYPNOTOAD;
        }
        .tv__cursive {
            fill: red;
            stroke: white;
            stroke-width: .03rem;
            rotate: -10deg;
            font: italic 2.6rem 'Satisfy';
        }
    </style>

</svg>